# xmcd
#
# Track frame offsets:
#	150
#	16707
#	33560
#	47300
#	58019
#	72511
#	90833
#	107879
#	127640
#	147363
#	164491
#	187974
#	202781
#	220169
#	237331
#
# Disc length: 3456 seconds
#
# Revision: 4
# Processed by: cddbd v1.5.1PL2 Copyright (c) Steve Scherf et al.
# Submitted via: dBpowerAMP V4.0
#
DISCID=c10d7e0f
DTITLE=The Mavericks - The Best of the Mavericks
DYEAR=1999
DGENRE=Country
TTITLE0=Things I Cannot Change
TTITLE1=World Without Love
TTITLE2=Are You Lonesome Tonight
TTITLE3=Think Of Me (When You're Lonely)
TTITLE4=Here Comes My Baby
TTITLE5=Pizziricco
TTITLE6=I've Got This Feeling
TTITLE7=Dance The Night Away
TTITLE8=All You Ever Do Is Bring Me Down
TTITLE9=Here Comes The Rain
TTITLE10=I Should Have Been True
TTITLE11=There Goes My Heart
TTITLE12=What A Crying Shame
TTITLE13=This Broken Heart
TTITLE14=From Hell To Paradise
EXTD=
EXTT0=
EXTT1=
EXTT2=
EXTT3=
EXTT4=
EXTT5=
EXTT6=
EXTT7=
EXTT8=
EXTT9=
EXTT10=
EXTT11=
EXTT12=
EXTT13=
EXTT14=
PLAYORDER=
